<?xml version="1.0" encoding="UTF-8" standalone="no"?>
<!DOCTYPE svg PUBLIC "-//W3C//DTD SVG 1.1//EN" "http://www.w3.org/Graphics/SVG/1.1/DTD/svg11.dtd">
<svg version="1.1" xmlns="http://www.w3.org/2000/svg" xmlns:xlink="http://www.w3.org/1999/xlink" preserveAspectRatio="xMidYMid meet" viewBox="124.51782399999998 71.70400000000001 382.73817600000007 382.8799999999999" width="378.74" height="378.88"><defs><path d="M450.73 72.75L451.83 72.8L452.93 72.87L454.03 72.97L455.12 73.08L456.2 73.22L457.28 73.38L458.36 73.55L459.42 73.75L460.49 73.97L461.54 74.21L462.59 74.47L463.64 74.75L464.68 75.05L465.71 75.37L466.73 75.72L467.75 76.08L468.76 76.46L469.76 76.86L470.75 77.29L471.74 77.73L472.72 78.19L473.69 78.68L474.65 79.18L475.61 79.7L476.55 80.24L477.49 80.81L478.41 81.39L479.33 81.99L480.24 82.61L481.13 83.26L482.02 83.92L482.9 84.6L483.76 85.3L484.62 86.02L485.47 86.76L486.3 87.51L487.12 88.29L487.94 89.09L489.51 90.73L491 92.42L492.41 94.16L493.74 95.94L494.99 97.77L496.17 99.64L497.26 101.55L498.27 103.49L499.2 105.47L500.06 107.47L500.83 109.51L501.52 111.57L502.14 113.65L502.68 115.75L503.14 117.87L503.52 120L503.82 122.15L504.04 124.31L504.19 126.47L504.26 128.64L504.25 130.81L504.16 132.98L503.99 135.15L503.75 137.31L503.43 139.46L503.03 141.6L502.56 143.73L502.01 145.84L501.38 147.93L500.68 150L499.9 152.05L499.04 154.07L498.11 156.06L497.1 158.02L496.02 159.94L494.86 161.83L493.63 163.68L492.32 165.48L490.93 167.25L489.47 168.96L441.34 217.09L474.11 378.37L474.22 378.98L474.31 379.6L474.39 380.22L474.45 380.84L474.5 381.46L474.53 382.08L474.54 382.7L474.55 383.32L474.53 383.94L474.5 384.56L474.46 385.18L474.4 385.8L474.33 386.41L474.24 387.03L474.14 387.64L474.02 388.25L473.89 388.85L473.74 389.46L473.58 390.06L473.41 390.66L473.22 391.25L473.01 391.84L472.8 392.42L472.56 393L472.32 393.58L472.06 394.15L471.78 394.71L471.49 395.27L471.19 395.82L470.87 396.37L470.54 396.91L470.2 397.44L469.84 397.96L469.47 398.48L469.08 398.99L468.68 399.49L468.27 399.98L467.84 400.47L467.4 400.94L466.94 401.41L443.9 424.45L443.55 424.83L443.2 425.2L442.83 425.56L442.46 425.91L442.08 426.25L441.7 426.58L441.31 426.9L440.91 427.21L440.51 427.52L440.1 427.81L439.68 428.09L439.26 428.36L438.83 428.63L438.4 428.88L437.96 429.13L437.52 429.36L437.08 429.59L436.63 429.8L436.17 430.01L435.71 430.21L435.25 430.4L434.78 430.57L434.31 430.74L433.84 430.9L433.36 431.05L432.88 431.19L432.4 431.32L431.92 431.44L431.43 431.55L430.94 431.65L430.45 431.74L429.96 431.82L429.47 431.89L428.97 431.96L428.48 432.01L427.98 432.05L427.48 432.08L426.98 432.11L426.48 432.12L425.98 432.13L425.87 432.13L425.76 432.12L425.65 432.12L425.54 432.11L425.43 432.11L425.32 432.1L425.22 432.09L425.12 432.07L425.01 432.06L424.91 432.05L424.81 432.03L424.71 432.02L424.61 432L424.52 431.98L424.42 431.97L424.32 431.95L424.22 431.93L424.13 431.91L424.03 431.89L423.84 431.85L423.74 431.83L423.65 431.81L423.55 431.8L423.45 431.78L423.36 431.76L423.26 431.74L423.16 431.73L423.06 431.71L422.96 431.7L422.86 431.68L422.76 431.67L422.65 431.66L422.55 431.65L422.44 431.64L422.33 431.63L422.23 431.62L422.11 431.62L422 431.62L421.89 431.62L421.28 431.49L420.67 431.36L420.06 431.21L419.46 431.05L418.87 430.87L418.28 430.69L417.69 430.49L417.12 430.28L416.54 430.05L415.98 429.82L415.42 429.57L414.86 429.31L414.31 429.04L413.77 428.75L413.24 428.46L412.71 428.15L412.19 427.83L411.68 427.51L411.18 427.17L410.69 426.82L410.2 426.46L409.73 426.08L409.26 425.7L408.8 425.31L408.35 424.91L407.91 424.5L407.49 424.08L407.07 423.65L406.66 423.21L406.26 422.76L405.88 422.3L405.5 421.83L405.14 421.36L404.79 420.87L404.45 420.38L404.12 419.88L403.81 419.37L403.51 418.85L403.22 418.33L402.94 417.79L348.16 309.25L310.27 347.14L318.98 398.34L319.08 398.95L319.17 399.57L319.24 400.19L319.3 400.81L319.34 401.42L319.36 402.04L319.37 402.66L319.36 403.28L319.34 403.9L319.3 404.52L319.24 405.14L319.17 405.75L319.08 406.36L318.98 406.97L318.87 407.58L318.74 408.18L318.59 408.78L318.44 409.38L318.27 409.97L318.08 410.56L317.88 411.14L317.67 411.72L317.44 412.29L317.21 412.86L316.96 413.42L316.69 413.98L316.42 414.52L316.13 415.06L315.83 415.6L315.52 416.12L315.2 416.64L314.86 417.14L314.52 417.64L314.16 418.13L313.8 418.61L313.42 419.09L313.03 419.55L312.63 420L312.23 420.44L311.81 420.86L288.77 443.9L288.42 444.28L288.06 444.65L287.7 445.01L287.33 445.36L286.95 445.7L286.56 446.04L286.17 446.36L285.77 446.67L285.37 446.97L284.96 447.26L284.54 447.55L284.12 447.82L283.7 448.08L283.26 448.34L282.83 448.58L282.39 448.82L281.94 449.04L281.49 449.26L281.03 449.47L280.58 449.66L280.11 449.85L279.65 450.03L279.18 450.2L278.7 450.36L278.23 450.5L277.75 450.64L277.27 450.77L276.78 450.89L276.3 451L275.81 451.1L275.32 451.2L274.83 451.28L274.33 451.35L273.84 451.41L273.34 451.46L272.84 451.51L272.34 451.54L271.85 451.56L271.35 451.58L270.85 451.58L270.73 451.58L270.62 451.58L270.51 451.58L270.4 451.57L270.29 451.56L270.19 451.55L270.08 451.54L269.98 451.53L269.88 451.52L269.78 451.5L269.68 451.49L269.58 451.47L269.48 451.46L269.38 451.44L269.28 451.42L269.19 451.4L269.09 451.39L268.99 451.37L268.9 451.35L268.7 451.31L268.61 451.29L268.51 451.27L268.41 451.25L268.32 451.23L268.22 451.22L268.12 451.2L268.02 451.18L267.92 451.17L267.82 451.15L267.72 451.14L267.62 451.13L267.52 451.11L267.41 451.1L267.31 451.09L267.2 451.09L267.09 451.08L266.98 451.08L266.87 451.07L266.75 451.07L266.14 450.99L265.53 450.88L264.93 450.77L264.33 450.63L263.73 450.48L263.14 450.31L262.56 450.13L261.98 449.93L261.41 449.72L260.84 449.49L260.28 449.25L259.72 448.99L259.18 448.72L258.64 448.44L258.1 448.14L257.58 447.83L257.06 447.51L256.55 447.17L256.05 446.82L255.55 446.46L255.07 446.09L254.59 445.71L254.12 445.32L253.67 444.92L253.22 444.5L252.78 444.08L252.35 443.64L251.93 443.2L251.52 442.75L251.13 442.29L250.74 441.82L250.37 441.34L250.01 440.85L249.65 440.36L249.31 439.86L248.99 439.35L248.67 438.83L248.37 438.31L248.08 437.78L247.81 437.25L212.48 366.59L140.29 332.8L139.72 332.52L139.16 332.24L138.6 331.93L138.06 331.62L137.53 331.29L137.01 330.95L136.5 330.6L136 330.24L135.5 329.87L135.02 329.48L134.55 329.08L134.09 328.68L133.65 328.26L133.21 327.83L132.78 327.39L132.37 326.94L131.96 326.48L131.57 326.02L131.19 325.54L130.82 325.06L130.46 324.56L130.11 324.06L129.77 323.55L129.45 323.03L129.14 322.5L128.84 321.97L128.55 321.43L128.27 320.88L128.01 320.33L127.76 319.77L127.52 319.2L127.3 318.63L127.08 318.05L126.88 317.46L126.69 316.87L126.52 316.28L126.36 315.68L126.21 315.08L126.07 314.47L125.95 313.86L125.84 313.24L125.75 312.63L125.68 312.01L125.61 311.4L125.57 310.79L125.54 310.18L125.52 309.57L125.52 308.96L125.53 308.35L125.56 307.74L125.6 307.14L125.66 306.54L125.73 305.94L125.82 305.34L125.92 304.75L126.04 304.16L126.17 303.57L126.32 302.98L126.48 302.4L126.66 301.82L126.85 301.25L127.05 300.68L127.27 300.11L127.5 299.55L127.75 299L128.01 298.44L128.28 297.9L128.57 297.36L128.87 296.82L129.19 296.29L129.52 295.76L129.87 295.24L130.23 294.73L130.6 294.22L130.98 293.72L131.38 293.23L131.8 292.74L132.23 292.26L132.67 291.79L133.12 291.33L157.7 266.75L158.05 266.37L158.4 266L158.77 265.64L159.14 265.29L159.52 264.95L159.9 264.62L160.29 264.3L160.69 263.99L161.09 263.68L161.5 263.39L161.92 263.11L162.34 262.84L162.77 262.57L163.2 262.32L163.64 262.07L164.08 261.84L164.52 261.61L164.97 261.4L165.43 261.19L165.89 260.99L166.35 260.8L166.82 260.63L167.29 260.46L167.76 260.3L168.24 260.15L168.72 260.01L169.2 259.88L169.68 259.76L170.17 259.65L170.66 259.55L171.15 259.46L171.64 259.38L172.13 259.31L172.63 259.24L173.12 259.19L173.62 259.15L174.12 259.12L174.62 259.09L175.12 259.08L175.62 259.07L175.69 259.07L175.77 259.08L175.85 259.08L175.94 259.09L176.02 259.09L176.11 259.1L176.2 259.11L176.29 259.13L176.38 259.14L176.47 259.15L176.57 259.17L176.66 259.18L176.76 259.2L176.86 259.22L176.96 259.23L177.06 259.25L177.16 259.27L177.26 259.29L177.37 259.31L177.47 259.33L177.58 259.35L177.69 259.37L177.79 259.39L177.9 259.4L178.01 259.42L178.12 259.44L178.23 259.46L178.34 259.47L178.46 259.49L178.57 259.5L178.68 259.52L178.79 259.53L178.91 259.54L179.02 259.55L179.14 259.56L179.25 259.57L179.37 259.58L179.48 259.58L179.6 259.58L179.71 259.58L230.91 268.29L268.8 230.4L160.26 175.62L159.72 175.34L159.2 175.05L158.68 174.75L158.17 174.44L157.67 174.11L157.17 173.77L156.69 173.42L156.21 173.06L155.75 172.68L155.29 172.3L154.84 171.9L154.4 171.49L153.97 171.07L153.55 170.65L153.14 170.21L152.74 169.76L152.34 169.3L151.96 168.83L151.59 168.36L151.23 167.87L150.88 167.38L150.54 166.88L150.21 166.37L149.9 165.85L149.59 165.32L149.3 164.79L149.01 164.25L148.74 163.7L148.48 163.14L148.23 162.58L148 162.02L147.77 161.44L147.56 160.86L147.36 160.28L147.17 159.69L147 159.1L146.84 158.5L146.69 157.89L146.55 157.28L146.43 156.67L146.33 156.06L146.24 155.44L146.16 154.83L146.11 154.22L146.07 153.6L146.04 152.99L146.04 152.38L146.05 151.78L146.07 151.17L146.11 150.57L146.17 149.97L146.24 149.37L146.32 148.77L146.42 148.18L146.54 147.59L146.67 147.01L146.81 146.42L146.97 145.85L147.14 145.27L147.33 144.7L147.53 144.14L147.74 143.58L147.96 143.03L148.2 142.48L148.45 141.94L148.72 141.4L148.99 140.87L149.28 140.35L149.58 139.83L149.89 139.32L150.21 138.82L150.54 138.32L150.89 137.83L151.25 137.35L151.61 136.88L151.99 136.42L152.38 135.97L152.77 135.52L153.18 135.08L153.6 134.66L176.64 111.62L176.99 111.24L177.35 110.87L177.71 110.51L178.08 110.16L178.46 109.82L178.84 109.48L179.24 109.16L179.63 108.85L180.04 108.55L180.45 108.26L180.86 107.97L181.28 107.7L181.71 107.44L182.14 107.18L182.58 106.94L183.02 106.7L183.47 106.48L183.92 106.26L184.37 106.05L184.83 105.86L185.29 105.67L185.76 105.49L186.23 105.32L186.7 105.16L187.18 105.02L187.66 104.88L188.14 104.75L188.62 104.63L189.11 104.52L189.6 104.42L190.09 104.32L190.58 104.24L191.08 104.17L191.57 104.11L192.07 104.06L192.57 104.01L193.06 103.98L193.56 103.96L194.06 103.94L194.56 103.94L194.68 103.94L194.79 103.94L194.91 103.94L195.04 103.94L195.16 103.94L195.28 103.94L195.41 103.94L195.53 103.94L195.66 103.94L195.79 103.94L195.92 103.95L196.05 103.95L196.18 103.95L196.32 103.96L196.45 103.96L196.58 103.97L196.72 103.98L196.85 103.98L196.99 103.99L197.12 104L197.25 104.01L197.39 104.02L197.52 104.03L197.66 104.05L197.79 104.06L197.92 104.08L198.06 104.09L198.19 104.11L198.32 104.13L198.45 104.15L198.58 104.17L198.71 104.2L198.83 104.22L198.96 104.25L199.08 104.28L199.2 104.31L199.33 104.34L199.45 104.37L199.56 104.41L199.68 104.45L360.96 137.22L409.09 89.09L409.86 88.29L410.65 87.51L411.46 86.76L412.28 86.02L413.11 85.3L413.96 84.6L414.82 83.92L415.69 83.26L416.58 82.61L417.48 81.99L418.39 81.39L419.31 80.81L420.25 80.24L421.19 79.7L422.15 79.18L423.11 78.68L424.09 78.19L425.07 77.73L426.07 77.29L427.07 76.86L428.08 76.46L429.1 76.08L430.13 75.72L431.17 75.37L432.21 75.05L433.26 74.75L434.32 74.47L435.38 74.21L436.45 73.97L437.53 73.75L438.61 73.55L439.69 73.38L440.78 73.22L441.88 73.08L442.97 72.97L444.08 72.87L445.18 72.8L446.29 72.75L447.4 72.71L448.51 72.7L449.62 72.71L450.73 72.75ZM446.85 98.32L446.27 98.35L445.7 98.38L445.12 98.43L444.55 98.48L443.98 98.54L443.4 98.62L442.83 98.7L442.26 98.8L441.7 98.91L441.13 99.02L440.56 99.15L440 99.29L439.44 99.44L438.88 99.6L438.33 99.77L437.77 99.95L437.22 100.15L436.67 100.35L436.13 100.57L435.58 100.8L435.04 101.04L434.51 101.29L433.98 101.55L433.45 101.83L432.92 102.12L432.4 102.42L431.88 102.73L431.37 103.06L430.86 103.39L430.35 103.74L429.85 104.11L429.36 104.48L428.87 104.87L428.38 105.27L427.9 105.69L427.43 106.11L426.96 106.55L426.5 107.01L368.64 164.86L194.05 129.02L171.01 152.06L310.78 222.21L238.59 294.4L174.59 283.65L150.02 308.22L230.4 346.11L269.31 424.96L292.35 401.92L281.6 337.92L353.79 265.73L424.96 405.5L448 382.46L412.16 207.87L469.5 150.02L470.37 149.12L471.18 148.19L471.95 147.24L472.68 146.27L473.37 145.27L474.01 144.25L474.6 143.21L475.16 142.15L475.66 141.08L476.13 139.98L476.55 138.88L476.92 137.76L477.25 136.63L477.54 135.49L477.78 134.34L477.98 133.18L478.14 132.02L478.25 130.85L478.31 129.68L478.34 128.51L478.31 127.34L478.25 126.17L478.14 125L477.98 123.84L477.78 122.69L477.54 121.54L477.25 120.4L476.92 119.27L476.55 118.15L476.13 117.04L475.66 115.95L475.16 114.87L474.6 113.81L474.01 112.77L473.37 111.75L472.68 110.76L471.95 109.78L471.18 108.83L470.37 107.91L469.5 107.01L469.04 106.59L468.57 106.18L468.1 105.78L467.62 105.4L467.13 105.02L466.64 104.65L466.15 104.29L465.65 103.94L465.14 103.6L464.63 103.27L464.12 102.95L463.6 102.64L463.08 102.35L462.55 102.06L462.03 101.78L461.49 101.51L460.96 101.25L460.42 101.01L459.87 100.77L459.33 100.54L458.78 100.33L458.23 100.12L457.67 99.93L457.12 99.75L456.56 99.57L456 99.41L455.44 99.26L454.87 99.12L454.3 98.99L453.74 98.87L453.17 98.76L452.6 98.67L452.02 98.58L451.45 98.51L450.88 98.45L450.3 98.4L449.73 98.36L449.15 98.33L448.58 98.31L448 98.3L447.42 98.31L446.85 98.32Z" id="j35OhQPhTZ"></path></defs><g><g><use xlink:href="#j35OhQPhTZ" opacity="1" fill="#fbf7f7" fill-opacity="1"></use><g><use xlink:href="#j35OhQPhTZ" opacity="1" fill-opacity="0" stroke="#000000" stroke-width="1" stroke-opacity="0"></use></g></g></g></svg>