<svg xmlns="http://www.w3.org/2000/svg" xmlns:xlink="http://www.w3.org/1999/xlink" version="1.1" x="0px" y="0px" viewBox="0 0 100 125" style="enable-background:new 0 0 100 100;" xml:space="preserve"><g><path d="M82.8,17.4c-2.1-2.1-4.8-3.2-7.7-3.2c-2.9,0-5.7,1.1-7.7,3.2l-9.4,9.4l-31.5-6.4c-0.3-0.1-0.7-0.1-1-0.1   c-1.3,0-2.6,0.5-3.5,1.5l-4.5,4.5c-1.1,1.1-1.7,2.7-1.4,4.3s1.3,3,2.7,3.7l21.2,10.7l-7.4,7.4l-10-1.7c-0.3,0-0.6-0.1-0.8-0.1   c-1.3,0-2.6,0.5-3.5,1.5l-4.8,4.8c-1.2,1.2-1.7,2.8-1.4,4.4c0.3,1.6,1.3,3,2.8,3.7l14.1,6.6l6.9,13.8c0.7,1.4,2.1,2.5,3.7,2.7   c0.3,0,0.5,0.1,0.8,0.1c1.3,0,2.6-0.5,3.5-1.5l4.5-4.5c1.1-1.1,1.7-2.8,1.4-4.4l-1.7-10l7.4-7.4l10.7,21.2c0.7,1.4,2.1,2.4,3.7,2.7   c0.3,0,0.5,0.1,0.8,0.1c1.3,0,2.6-0.5,3.5-1.5l4.5-4.5c1.2-1.2,1.7-2.9,1.4-4.5l-6.4-31.5l9.4-9.4C87,28.6,87,21.6,82.8,17.4z    M79.2,29.3L68,40.6l7,34.1l-4.5,4.5L56.6,51.9L42.5,66l2.1,12.5l-4.5,4.5l-7.6-15.4l-15.7-7.4l4.8-4.8l12.5,2.1l14.1-14.1   L20.9,29.7l4.5-4.5l34.1,7l11.3-11.3c1.2-1.2,2.7-1.7,4.2-1.7s3,0.6,4.2,1.7C81.5,23.2,81.5,27,79.2,29.3z"/></g></svg>