<?xml version="1.0" standalone="no"?>
<!DOCTYPE svg PUBLIC "-//W3C//DTD SVG 20010904//EN"
 "http://www.w3.org/TR/2001/REC-SVG-20010904/DTD/svg10.dtd">
<svg version="1.0" xmlns="http://www.w3.org/2000/svg"
 width="700.000000pt" height="700.000000pt" viewBox="0 0 700.000000 700.000000"
 preserveAspectRatio="xMidYMid meet">
<metadata>
Created by potrace 1.14, written by Peter Selinger 2001-2017
</metadata>
<g transform="translate(0.000000,700.000000) scale(0.100000,-0.100000)"
fill="#000000" stroke="none">
<path d="M5858 6979 c-152 -13 -263 -42 -391 -105 -59 -29 -136 -77 -174 -109
-6 -5 -227 -224 -490 -487 l-478 -476 -140 29 c-157 33 -151 31 -260 53 -44 8
-224 45 -400 81 -176 36 -333 68 -349 71 -16 2 -93 18 -170 34 -78 16 -152 31
-166 34 -38 7 -263 53 -370 75 -52 11 -106 22 -120 25 -29 5 -425 86 -455 92
-11 3 -42 9 -70 14 -73 14 -100 19 -205 42 -52 11 -104 22 -115 24 -11 2 -42
8 -70 14 -85 19 -189 23 -248 10 -119 -24 -153 -51 -431 -328 -142 -143 -271
-279 -287 -302 -112 -166 -95 -383 42 -555 63 -79 -51 -18 1542 -820 317 -159
577 -293 577 -298 0 -4 -154 -161 -341 -348 l-341 -341 -47 6 c-25 3 -57 8
-71 11 -28 5 -309 54 -355 62 -39 6 -372 63 -405 69 -39 7 -123 17 -145 17
-77 1 -170 -27 -235 -70 -62 -40 -573 -559 -607 -615 -113 -187 -66 -453 106
-597 35 -29 285 -161 306 -161 2 0 63 -29 137 -64 73 -35 153 -72 178 -84 25
-11 86 -39 135 -62 50 -23 117 -55 150 -70 33 -15 110 -51 170 -80 213 -101
260 -123 301 -140 l41 -18 339 -678 c317 -635 343 -682 395 -735 67 -67 177
-125 259 -136 70 -9 155 -6 200 8 106 33 137 58 397 317 142 142 273 282 293
313 71 111 88 234 54 404 -3 11 -7 36 -10 55 -6 34 -46 272 -64 375 -10 59
-14 80 -34 205 -9 52 -18 106 -21 120 -3 14 -7 43 -10 65 l-6 40 341 340 c187
187 343 341 347 342 5 2 120 -219 256 -490 136 -270 281 -557 321 -637 41 -80
107 -212 149 -295 324 -646 333 -661 442 -730 155 -99 327 -108 479 -27 70 37
570 537 608 607 68 128 72 218 23 461 -21 99 -39 189 -41 201 -2 13 -29 145
-60 295 -31 150 -58 282 -60 293 -2 11 -13 65 -24 120 -11 55 -22 111 -25 125
-3 14 -7 36 -10 50 -3 14 -7 34 -9 45 -48 230 -59 284 -62 305 -4 23 -32 157
-39 190 -6 27 -76 375 -81 400 -3 14 -11 57 -20 95 -8 39 -16 79 -18 90 -2 11
-27 135 -56 275 -29 140 -54 266 -56 279 -3 13 -6 28 -7 32 -1 5 201 213 449
462 248 248 469 477 491 507 308 427 268 1023 -93 1384 -168 168 -382 269
-616 291 -35 4 -67 7 -73 9 -5 1 -49 -1 -97 -5z m180 -480 c29 -6 89 -29 134
-51 271 -136 374 -463 235 -741 -38 -78 -59 -101 -411 -455 -715 -720 -737
-742 -732 -760 5 -15 19 -80 32 -152 3 -14 14 -70 25 -125 12 -55 22 -107 24
-115 4 -20 46 -223 96 -465 22 -110 43 -211 45 -225 3 -14 9 -41 15 -61 5 -20
11 -49 13 -65 2 -16 6 -40 10 -54 3 -14 8 -36 10 -50 5 -25 20 -101 31 -150 3
-14 7 -36 10 -50 2 -14 23 -113 45 -220 22 -107 63 -303 90 -435 27 -132 56
-273 64 -312 9 -40 18 -85 21 -100 6 -35 5 -31 50 -248 20 -99 39 -193 42
-208 2 -15 10 -50 17 -77 7 -27 9 -55 5 -62 -11 -17 -412 -419 -415 -415 -3 3
-46 88 -607 1187 -71 140 -187 368 -257 505 -70 138 -196 385 -280 550 -84
165 -154 301 -156 303 -1 2 -299 -293 -661 -655 -483 -483 -659 -665 -657
-679 2 -10 6 -35 9 -54 3 -19 7 -46 9 -60 7 -33 43 -246 50 -290 3 -19 33
-195 66 -390 32 -195 58 -355 57 -357 -28 -32 -412 -413 -417 -413 -3 0 -96
181 -205 403 -109 221 -268 543 -353 716 l-155 314 -154 73 c-85 41 -156 74
-158 74 -1 0 -82 38 -180 85 -97 47 -178 85 -180 85 -2 0 -54 24 -117 54 -167
80 -341 162 -443 209 -49 23 -123 58 -164 77 l-73 36 223 223 223 223 45 -6
c25 -3 57 -8 71 -10 21 -4 183 -31 315 -52 17 -3 80 -14 140 -24 61 -11 124
-22 140 -24 17 -3 126 -21 244 -41 117 -20 215 -34 217 -33 2 2 299 297 659
657 369 368 652 658 648 662 -9 9 -557 285 -1846 930 l-697 350 211 210 211
211 176 -36 c98 -20 265 -54 372 -76 107 -22 274 -56 370 -76 96 -19 191 -39
210 -44 33 -9 47 -11 133 -25 17 -3 39 -8 47 -10 12 -4 590 -124 680 -141 14
-3 102 -21 195 -40 94 -19 179 -36 190 -39 225 -45 490 -100 560 -115 50 -11
101 -22 115 -24 14 -3 49 -9 79 -15 29 -6 57 -11 61 -11 4 0 259 251 566 558
536 536 562 560 634 594 129 62 234 75 378 47z"/>
</g>
</svg>
