<?xml version="1.0" standalone="no"?>
<!DOCTYPE svg PUBLIC "-//W3C//DTD SVG 20010904//EN"
 "http://www.w3.org/TR/2001/REC-SVG-20010904/DTD/svg10.dtd">
<svg version="1.0" xmlns="http://www.w3.org/2000/svg"
 width="700.000000pt" height="700.000000pt" viewBox="0 0 700.000000 700.000000"
 preserveAspectRatio="xMidYMid meet">
<metadata>
Created by potrace 1.11, written by Peter Selinger 2001-2013
</metadata>
<g transform="translate(0.000000,700.000000) scale(0.100000,-0.100000)"
fill="#000000" stroke="none">
<path d="M5858 6979 c-152 -13 -263 -42 -391 -105 -59 -29 -136 -77 -174 -109
-6 -5 -227 -224 -490 -486 l-478 -477 -285 58 c-157 32 -386 78 -510 103 -124
26 -237 48 -253 51 -15 3 -35 7 -45 10 -9 3 -28 7 -42 10 -20 3 -189 37 -605
122 -50 10 -222 45 -240 48 -11 2 -123 25 -250 51 -126 26 -241 49 -255 51
-14 2 -36 7 -50 10 -14 3 -36 8 -50 11 -14 2 -68 13 -120 25 -52 11 -106 22
-120 25 -14 3 -47 9 -75 15 -144 30 -269 16 -368 -40 -54 -31 -531 -501 -582
-575 -19 -26 -43 -73 -55 -103 -68 -183 10 -422 175 -536 28 -19 219 -120 425
-223 206 -103 497 -250 645 -325 149 -76 429 -217 622 -314 l353 -176 -345
-345 c-190 -190 -353 -345 -363 -345 -9 0 -91 13 -182 29 -91 16 -183 32 -205
36 -22 3 -51 8 -65 10 -14 2 -106 18 -205 35 -99 17 -191 33 -205 36 -39 7
-123 17 -145 17 -80 1 -172 -28 -240 -74 -50 -34 -557 -541 -590 -591 -48 -72
-68 -137 -71 -238 -2 -79 1 -107 20 -163 48 -140 131 -226 286 -300 143 -67
454 -213 615 -287 33 -15 114 -54 180 -85 66 -31 145 -68 175 -82 30 -14 98
-46 150 -70 52 -25 109 -52 127 -60 29 -13 64 -79 370 -691 316 -633 342 -680
394 -733 67 -67 177 -125 259 -135 73 -10 155 -7 199 7 106 33 136 58 396 316
141 141 272 279 290 307 76 115 93 239 59 411 -3 11 -7 36 -10 55 -6 34 -46
272 -64 375 -10 59 -14 80 -34 205 -9 52 -18 105 -20 117 -3 11 -7 41 -11 65
l-6 43 340 340 c188 187 344 341 348 342 5 2 122 -223 261 -500 139 -276 284
-563 321 -637 38 -74 102 -202 144 -285 267 -531 304 -600 347 -648 116 -130
304 -193 459 -153 117 30 151 56 416 321 138 138 263 266 278 286 32 43 72
137 82 194 12 69 5 134 -31 315 -20 96 -38 185 -40 197 -2 13 -29 145 -60 295
-31 150 -58 282 -60 293 -2 11 -13 65 -24 120 -11 55 -22 111 -25 125 -3 14
-7 36 -10 50 -3 14 -7 34 -9 45 -48 230 -59 284 -62 305 -4 22 -30 150 -39
190 -7 32 -67 326 -71 350 -3 14 -14 68 -25 121 -11 52 -21 104 -23 115 -2 10
-21 100 -41 199 -20 99 -39 191 -41 205 -3 14 -13 62 -23 107 l-18 83 451 451
c248 248 469 476 492 507 240 332 275 776 90 1135 -155 302 -464 512 -796 542
-36 4 -69 7 -75 9 -5 1 -49 -1 -97 -5z m196 -485 c344 -85 514 -465 353 -787
-43 -88 -12 -55 -965 -1012 l-182 -184 16 -73 c8 -40 18 -84 20 -98 3 -14 18
-90 35 -170 16 -80 31 -156 34 -170 2 -14 9 -45 14 -70 19 -82 70 -334 76
-370 3 -19 11 -55 16 -80 11 -48 13 -54 30 -140 6 -30 15 -73 20 -95 5 -22 11
-51 13 -65 5 -24 20 -100 31 -150 3 -14 7 -36 10 -50 2 -14 23 -113 45 -220
22 -107 63 -303 90 -435 27 -132 56 -273 64 -312 9 -40 18 -85 21 -100 6 -34
5 -29 50 -248 20 -99 39 -191 42 -205 2 -14 10 -51 17 -82 l13 -57 -210 -210
c-116 -116 -212 -210 -213 -208 -1 1 -46 88 -99 192 -94 184 -253 496 -513
1005 -68 135 -182 358 -252 495 -70 138 -196 385 -280 550 -84 165 -154 301
-156 303 -6 8 -1320 -1316 -1318 -1329 4 -29 15 -95 20 -124 3 -16 13 -79 24
-140 10 -60 21 -123 23 -140 3 -16 26 -154 51 -305 26 -151 49 -288 52 -305 2
-16 9 -54 14 -84 6 -30 9 -56 7 -57 -33 -38 -412 -414 -417 -414 -3 0 -125
241 -271 536 -145 295 -304 618 -354 717 l-90 181 -165 78 c-91 43 -219 103
-285 134 -66 32 -163 77 -215 101 -52 25 -122 57 -155 73 -159 75 -319 151
-405 191 -52 24 -128 60 -169 79 l-73 36 222 223 223 223 41 -5 c23 -3 286
-46 585 -97 299 -50 545 -89 547 -88 2 2 299 297 659 657 361 360 652 658 648
662 -8 8 -774 394 -2051 1033 l-492 247 211 211 211 211 52 -11 c183 -39 295
-62 318 -67 67 -13 91 -17 228 -46 80 -16 224 -46 320 -65 96 -19 191 -39 210
-44 33 -9 47 -11 133 -25 17 -3 39 -8 47 -10 12 -4 590 -124 680 -141 14 -3
102 -21 195 -40 94 -19 179 -36 190 -39 11 -2 121 -25 245 -50 124 -26 234
-48 245 -51 11 -2 52 -10 90 -18 39 -9 81 -18 95 -20 14 -3 49 -9 79 -15 29
-6 57 -11 61 -11 4 0 258 251 566 558 536 535 562 560 634 594 134 64 254 77
394 42z"/>
</g>
</svg>
